<svg xmlns="http://www.w3.org/2000/svg" style="display:none">
  <symbol id="icon-leaf" viewBox="0 0 32 32">
    <path d="M16 4 C6 8, 4 20, 8 28 C14 22, 24 18, 28 10 C22 6, 16 4, 16 4Z" fill="#2F4F4F"/>
    <path d="M16 4 C16 14, 12 22, 8 28" stroke="#BADA55" stroke-width="1.5" fill="none"/>
  </symbol>
  <symbol id="icon-boat" viewBox="0 0 32 32">
    <path d="M4 20 L28 20 L24 26 L8 26 Z" fill="#1a1a1a"/>
    <path d="M16 8 L16 20 M10 14 L16 8 L22 14" stroke="#008080" stroke-width="2" fill="none" stroke-linecap="round"/>
  </symbol>
  <symbol id="icon-cloud" viewBox="0 0 32 32">
    <path d="M8 22 C4 22, 4 16, 8 14 C8 10, 14 8, 18 10 C20 6, 28 6, 28 14 C32 14, 32 22, 26 22 Z" fill="#90E0EF" stroke="#0077B6" stroke-width="1.5"/>
  </symbol>
  <symbol id="icon-palette" viewBox="0 0 32 32">
    <ellipse cx="16" cy="16" rx="12" ry="10" fill="#FF8A80" stroke="#1A237E" stroke-width="2"/>
    <circle cx="10" cy="14" r="2.5" fill="#87CEEB"/>
    <circle cx="16" cy="10" r="2.5" fill="#BADA55"/>
    <circle cx="22" cy="14" r="2.5" fill="#FFB399"/>
    <circle cx="18" cy="20" r="2.5" fill="#6A5ACD"/>
  </symbol>
  <symbol id="icon-brush" viewBox="0 0 32 32">
    <rect x="6" y="20" width="8" height="6" rx="1" fill="#FFB399" transform="rotate(-30 10 23)"/>
    <path d="M14 18 L26 6" stroke="#2F4F4F" stroke-width="3" stroke-linecap="round"/>
    <path d="M24 4 C28 6, 28 10, 26 12" stroke="#FF6B6B" stroke-width="2" fill="none"/>
  </symbol>
</svg>
